<?xml version="1.0"?>
<svg xmlns:rdf="http://www.w3.org/1999/02/22-rdf-syntax-ns#" xmlns="http://www.w3.org/2000/svg" xmlns:cc="http://web.resource.org/cc/" xmlns:dc="http://purl.org/dc/elements/1.1/" xmlns:svg="http://www.w3.org/2000/svg" id="svg14350" viewBox="0 0 150.26 150.26" version="1.0">
  <g id="layer1" transform="translate(-274.87 -457.23)">
    <g id="g10985" transform="translate(-230.71 -36.077)">
      <rect id="rect10979" ry="5.266" transform="rotate(45)" height="106.68" width="106.68" stroke="#000" y="-62.013" x="759.23" stroke-width="3.7488" fill="#ff0"/>
      <g id="g10981" transform="translate(274 -69.521)">
        <path id="path10983" fill="#110b02" d="m285.51 676.82c-2.68-1.03-4.96-1.97-5.07-2.08-0.11-0.1 0.98-3.37 2.43-7.25l2.63-7.06v-22.64l0.01-22.63-2.63-6.89c-1.44-3.78-2.63-6.98-2.63-7.11 0-0.44 11.29-4.36 11.61-4.04 0.17 0.17 1.86 4.65 3.74 9.95l3.41 9.64 0.02 21.11 0.02 21.11-3.54 9.94c-1.95 5.47-3.9 9.92-4.33 9.89-0.44-0.03-2.99-0.9-5.67-1.94zm36.47 1.36c-0.22-0.34-1.76-4.45-3.42-9.13l-3.04-8.5v-45.27l3.05-8.57c1.68-4.71 3.34-8.86 3.69-9.22 0.76-0.77 10.55 2.53 11.01 3.71 0.18 0.44-0.88 3.93-2.34 7.75l-2.65 6.96 0.01 21.88v21.89l2.62 6.94c1.44 3.83 2.62 7.25 2.62 7.61s-2.38 1.54-5.29 2.62c-6.02 2.23-5.75 2.17-6.26 1.33z"/>
      </g>
    </g>
  </g>
  <metadata>
    <rdf:RDF>
      <cc:Work>
        <dc:format>image/svg+xml</dc:format>
        <dc:type rdf:resource="http://purl.org/dc/dcmitype/StillImage"/>
        <cc:license rdf:resource="http://creativecommons.org/licenses/publicdomain/"/>
        <dc:publisher>
          <cc:Agent rdf:about="http://openclipart.org/">
            <dc:title>Openclipart</dc:title>
          </cc:Agent>
        </dc:publisher>
        <dc:title>caution_bridge</dc:title>
        <dc:date>2007-10-19T23:57:43</dc:date>
        <dc:description>clip art, clipart, image, media, public domain, roadsign, roadsign, sign, sign, svg, traffic, traffic, </dc:description>
        <dc:source>http://openclipart.org/detail/7234/caution_bridge-by-leomarc</dc:source>
        <dc:creator>
          <cc:Agent>
            <dc:title>Leomarc</dc:title>
          </cc:Agent>
        </dc:creator>
        <dc:subject>
          <rdf:Bag>
            <rdf:li>clip art</rdf:li>
            <rdf:li>clipart</rdf:li>
            <rdf:li>image</rdf:li>
            <rdf:li>media</rdf:li>
            <rdf:li>public domain</rdf:li>
            <rdf:li>roadsign</rdf:li>
            <rdf:li>sign</rdf:li>
            <rdf:li>svg</rdf:li>
            <rdf:li>traffic</rdf:li>
          </rdf:Bag>
        </dc:subject>
      </cc:Work>
      <cc:License rdf:about="http://creativecommons.org/licenses/publicdomain/">
        <cc:permits rdf:resource="http://creativecommons.org/ns#Reproduction"/>
        <cc:permits rdf:resource="http://creativecommons.org/ns#Distribution"/>
        <cc:permits rdf:resource="http://creativecommons.org/ns#DerivativeWorks"/>
      </cc:License>
    </rdf:RDF>
  </metadata>
</svg>
